#!OML:ASF E:/inclinewalkrobotboard/Project1/Captureday1/Session1/subject1.ASF
:FULLY-SPECIFIED
:DEGREES
26
root 0 0 0 1.83638933233463 -10.533507433579201 0.4101857343748214
lowerback 0.708344810480432 -1.8112476950461587 -2.2047586067440568
upperback 0.2136625019677083 -2.3375138924531136 1.5830732701737806
thorax 0.03807715542981005 -1.2055800189978472 2.8050525654777285
lowerneck -21.708580536152976 -0.8810019517648079 -7.531930251656406
upperneck 33.788849981176654 1.2576829024742444 0.5441801437348444
head 15.075673906280526 -0.366975022195164 1.9084770267514244
rclavicle -2.018029186767913E-15 7.687895841662775E-17
rhumerus -32.79162629499482 -5.209025837439033 -80.43663298585442
rradius 30.182529707722335
rwrist 19.4673728055722
rhand -17.43184208542652 9.118502746944184
rfingers 7.125019999999966
rthumb 8.817248379518794 -20.67278335276814
lclavicle -2.7024500674326206E-15 1.871741340742567E-15
lhumerus -35.508729603851044 -15.179462314462405 99.1496545199317
lradius 60.54878723562978
lwrist 7.099229859477301
lhand -26.171042951540848 24.292805520507127
lfingers 7.125019999999975
lthumb 0.42180021394911904 54.46842329940902
rfemur -1.8255137934444043 8.476770486379287 36.97412148582277
rtibia 24.632997745394484
rfoot -16.0006174408705 -6.63159889504233
rtoes 12.287445334037546
lfemur -21.051055567829128 3.1193363050933045 -13.120002619721975
ltibia 59.429104498941356
lfoot -1.4670961752329603 -6.385087619141373
ltoes -8.202720697702654
27
root 0 0 0 1.8439774764941599 -10.549730215209575 0.4014746675780371
lowerback 0.6718725333092355 -1.8113573979397364 -2.211341880465098
upperback 0.20990314923021092 -2.33820551976448 1.5725048303545641
thorax 0.05259351855478367 -1.2057454651851032 2.797038649691599
lowerneck -21.556865869690334 -0.8650938758044664 -7.565086929905664
upperneck 34.10510323332443 1.2793951380969155 0.5259721839614837
head 15.168718505983499 -0.37099551123501706 1.9154266478320112
rclavicle -1.6258592536851551E-15 1.0222962385076731E-15
rhumerus -32.523556690749174 -4.439908407008673 -80.63638255899663
rradius 30.39698644109432
rwrist 19.27176853173537
rhand -17.613291385030895 9.145837871356003
rfingers 7.125019999999968
rthumb 8.644160644579925 -20.638870259496585
lclavicle -2.9580565288139626E-15 2.3486446757029762E-15
lhumerus -35.491564549367716 -15.189155324658831 99.19098166360922
lradius 60.59253783028694
lwrist 7.059412832584794
lhand -26.20755526447146 24.266590100486063
lfingers 7.125019999999975
lthumb 0.3850315906315043 54.440240661271105
rfemur 2.5561560055957067 9.287561927355268 37.98926937798835
rtibia 19.82433259568611
rfoot -19.62513870259246 -7.108172430508242
rtoes 8.964043704755284
lfemur -22.811370670466424 2.856348735942524 -12.689078721726805
ltibia 56.87560319705986
lfoot -2.4785850227446646 -4.972582170511121
ltoes -7.700454852706608
28
root 0 0 0 1.8456516027065017 -10.55536507609597 0.397393441148523
lowerback 0.653707146794448 -1.8097543556943685 -2.215727201193614
upperback 0.20411088871602978 -2.336161228466377 1.5679476010595277
thorax 0.0556933648279887 -1.2045383572513604 2.7946829176807344
lowerneck -21.484474481671164 -0.8592730342230515 -7.581162163659804
upperneck 34.2396981623795 1.2865999001848498 0.5222161952772955
head 15.207679533375806 -0.37359708439425 1.919785074030239
rclavicle -1.5962108109603666E-15 1.0394854105476137E-15
rhumerus -32.14124899476029 -3.354742203242145 -80.83029678436063
rradius 30.634330517934522
rwrist 18.889054611100306
rhand -17.885063070816 9.282185757285612
rfingers 7.125019999999967
rthumb 8.383275766977835 -20.51065399462074
lclavicle -2.583580839872679E-15 2.3124915455660873E-15
lhumerus -35.50712978565314 -15.177465801658201 99.19188738242796
lradius 60.57199688447555
lwrist 7.069092304859248
lhand -26.19606075490353 24.275332416950214
lfingers 7.125019999999975
lthumb 0.39673890719593263 54.449278308005226
rfemur 4.3117467796969535 9.631888646442142 38.20824597526436
rtibia 17.289186504471907
rfoot -20.743821777767998 -7.41572482610824
rtoes 6.8019668040849
lfemur -25.293873059864737 2.16326621224175 -11.867704896250514
ltibia 51.69365137763961
lfoot -3.431827424653828 -2.734500354014774
ltoes -7.020887516942874
29
root 0 0 0 1.8457975019421435 -10.557827751994184 0.39494070448786456
lowerback 0.6491531253386031 -1.8093847945683623 -2.2149090969638348
upperback 0.20467947655570973 -2.3354922895786343 1.565328013963976
thorax 0.058369777873627626 -1.204479016877523 2.791560422728882
lowerneck -21.460305273123495 -0.8599443920659429 -7.586070893562492
upperneck 34.3007962592239 1.2851911899339448 0.5184554391656824
head 15.226745043441873 -0.3766608506369049 1.9198863691269585
rclavicle -2.4170557429500604E-15 4.750844837812439E-16
rhumerus -31.765776744990905 -2.1554106236048503 -80.98030204474237
rradius 30.851516353281337
rwrist 18.518591751144328
rhand -18.172323966272657 9.410402203009077
rfingers 7.125019999999966
rthumb 8.106888945312638 -20.39509853262142
lclavicle -2.2463820183253955E-15 2.16383366931367E-15
lhumerus -35.55720321202946 -15.153138996088543 99.18649408488788
lradius 60.497352200308505
lwrist 7.106565885098677
lhand -26.159370172594997 24.297876063491145
lfingers 7.125019999999974
lthumb 0.4331485605897587 54.47315979012874
rfemur 5.434853850097424 9.595829862243928 38.15468122189651
rtibia 17.11280336417058
rfoot -21.132330022016276 -7.394972316422493
rtoes 5.13521530636919
lfemur -28.56249929468555 0.8755445810606579 -10.881463595723753
ltibia 43.834602927552396
lfoot -4.47642757808769 0.11831184212460588
ltoes -5.468935979508863
